<?xml version="1.0" encoding="iso-8859-1"?>
<!-- Generator: Adobe Illustrator 19.0.0, SVG Export Plug-In . SVG Version: 6.00 Build 0)  -->
<svg version="1.1" id="Layer_1" xmlns="http://www.w3.org/2000/svg" xmlns:xlink="http://www.w3.org/1999/xlink" x="0px" y="0px"
	 viewBox="0 0 512.001 512.001" style="enable-background:new 0 0 512.001 512.001;" xml:space="preserve">
<g>
	<g>
		<path d="M450.34,453.356L271.479,10.418c-5.608-13.888-25.346-13.893-30.956,0C237.599,17.661,62.948,450.17,61.66,453.36
			c-3.431,8.494,0.627,18.166,9.09,21.672c59.021,24.447,121.069,36.885,184.422,36.969c0.219,0,0.435,0,0.653,0
			c63.812,0,126.197-12.438,185.426-36.972C449.714,471.523,453.771,461.851,450.34,453.356z M222.03,145.374
			c12.572,2.671,22.033,13.855,22.033,27.211c0,15.34-12.48,27.821-27.821,27.821c-5.292,0-10.369-1.487-14.733-4.215
			L222.03,145.374z M188.925,227.359c8.367,4.175,17.677,6.432,27.318,6.432c33.749,0,61.206-27.457,61.206-61.206
			c0-27.349-18.032-50.562-42.831-58.384l21.383-52.953l132.054,327.023c-42.515,15.636-86.915,23.574-132.239,23.574
			c-45.109,0-89.388-7.938-131.871-23.572L188.925,227.359z M255.823,478.614c-0.2,0-0.407,0-0.607,0
			c-53.481-0.07-105.98-9.608-156.295-28.37l12.512-30.984c46.48,17.237,94.97,25.969,144.39,25.969
			c49.626,0,98.236-8.735,144.745-25.974l12.512,30.984C362.547,469.078,309.733,478.614,255.823,478.614z"/>
	</g>
</g>
<g>
	<g>
		<path d="M271.884,256.048c-33.749,0-61.206,27.457-61.206,61.206s27.457,61.206,61.206,61.206
			c33.749,0,61.206-27.457,61.206-61.206S305.633,256.048,271.884,256.048z M271.884,345.075c-15.341,0-27.821-12.48-27.821-27.821
			s12.48-27.821,27.821-27.821c15.341,0,27.821,12.481,27.821,27.821S287.225,345.075,271.884,345.075z"/>
	</g>
</g>
<g>
</g>
<g>
</g>
<g>
</g>
<g>
</g>
<g>
</g>
<g>
</g>
<g>
</g>
<g>
</g>
<g>
</g>
<g>
</g>
<g>
</g>
<g>
</g>
<g>
</g>
<g>
</g>
<g>
</g>
</svg>
